<?xml version="1.0" encoding="utf-8"?>
<!-- Generator: Adobe Illustrator 27.9.1, SVG Export Plug-In . SVG Version: 6.00 Build 0)  -->
<svg version="1.1" id="Layer_1" xmlns="http://www.w3.org/2000/svg" xmlns:xlink="http://www.w3.org/1999/xlink" x="0px" y="0px"
	 viewBox="0 0 76 99.5" style="enable-background:new 0 0 76 99.5;" xml:space="preserve">
<g>
	<path d="M36.2,54.8c0,10.1-6.9,14.3-15.6,14.3C9.9,69.1,5,61.9,5,55.1c0-4.3,0.8-6.8,3-10.7c1.2-2,5.6-8,9.7-13.5
		c0.5-0.7,1.2-1.1,2.1-1.1h10c1.4,0,1.9,0.9,1.1,2.1l-7.5,10C30.9,41.2,36.2,47.4,36.2,54.8z M24.6,55.1c0-2.3-1.7-4.3-4-4.3
		c-2.1,0-4,1.8-4,4.3c0,3,2,4.4,4,4.4C22.7,59.5,24.6,58.1,24.6,55.1z"/>
</g>
<g>
	<path d="M52.6,42l-7.5-10c-0.8-1.2-0.4-2.1,1.1-2.1h10c0.9,0,1.6,0.3,2.1,1.1c4.1,5.5,8.5,11.5,9.7,13.5c2.1,3.8,3,6.3,3,10.7
		c0,6.9-5,14-15.6,14c-8.7,0-15.6-4.2-15.6-14.3C39.7,47.4,45,41.2,52.6,42z M55.2,59.5c2,0,4-1.4,4-4.4c0-2.5-1.9-4.3-4-4.3
		c-2.3,0-4,2-4,4.3C51.2,58.1,53.2,59.5,55.2,59.5z"/>
</g>
<g>
	<path d="M0.3,92.6c-0.4-0.5-0.3-1.5-0.1-2.1c0.9-3.2,3.4-6.2,5.3-8.8c2-2.7,4.4-5.2,7.4-6.8c4.3-2.3,9.4-3.1,14.2-2
		c0.6,0.1,1.3,0.3,1.9,0.5c4,1.3,7.6,3.7,11.2,5.8c2.6,1.6,5.3,3.2,8.3,4.1c3.2,0.9,6.8,0.6,10.1,0.8c1.7,0.1,3.3,0.3,4.6,1.5
		c0.8,0.7,1.3,1.7,1,2.7c-0.3,1-1.3,1.6-2.2,2.1c-2.4,1.1-4.9,1.2-7.5,1.3c-2.9,0.1-5.8,0-8.7-0.4c-3.3-0.5-6.6-1.2-9.9-1.2
		c-0.6,0-2.8-0.1-3,0.6c0.2-0.9,7.6,0.8,8.4,1c1.8,0.4,3.6,0.8,5.5,1c3.8,0.5,7.6,0.7,11.4,0.1c1.9-0.3,3.9-0.8,5.4-1.9
		c1.1-0.8,2-2,2.1-3.4c0.1-1.4-1.2-2.4-2.3-3c0.2,0.1,0.7-0.5,0.8-0.6c1.3-1.4,2.4-2.9,3.2-4.6c0.9-1.8,1.6-3.6,2.7-5.3
		c0.8-1.3,2.9-3.4,4.6-2.7c0.4,0.2,0.8,0.6,0.9,1c0.2,0.4,0.2,0.9,0.2,1.4c0,2.6-1.3,4.8-2.4,7c-1.4,2.7-3,5.3-4.9,7.7
		c-1.9,2.4-4.3,4.7-6.9,6.5c-1.3,0.9-2.7,1.7-4.1,2.4c-4.3,2.1-9.2,2.6-14,2.5c-4.7-0.1-9.6-0.6-14.1-2c-4.9-1.5-9.5-3.8-14.5-5.1
		c-2.9-0.8-6-1.2-9.1-0.8c-1.5,0.2-3,0.5-4.5,1.1C0.9,92.9,0.5,92.8,0.3,92.6z"/>
	<g>
		<path d="M60.5,80.5c-0.9,1.2-2,2.4-3.4,2.9c0,0,0.2,0,0.2,0c1.2-0.3,2.1-0.3,2.9-0.2c0.2,0,1.1-1.4,1.2-1.6
			c0.4-0.6,0.8-1.1,1.1-1.7c1-1.5,1.9-3.1,2.9-4.6c0-0.1,0.3-0.6,0.4-0.6c-0.3,0-0.7,0.4-0.9,0.6c-0.5,0.4-0.9,0.9-1.3,1.4
			c-0.9,1-1.7,2-2.5,3.1C60.9,80,60.7,80.3,60.5,80.5z"/>
	</g>
	<g>
		<path d="M66.3,76.2c-0.3,0.5-0.7,1.1-1,1.6c-0.9,1.5-1.8,2.9-2.8,4.3c-0.1,0.2-0.3,0.4-0.4,0.6c-0.2,0.2-0.4,0.5-0.6,0.7l-0.2,0.2
			c0.6,0.1,1.1,0.2,1.5,0.4c0,0,0.5-0.6,0.6-0.6c0.3-0.3,0.5-0.6,0.7-0.9c1.1-1.4,2-3,2.7-4.6c0.4-0.8,0.7-1.6,1.1-2.5
			c0.3-0.8,0.6-1.6,1.1-2.3c0-0.1,0.1-0.1,0.2-0.2c0,0,0,0,0.1-0.1c-0.1,0.1-0.2,0.2-0.4,0.3c-0.3,0.2-0.5,0.5-0.8,0.8
			C67.4,74.5,66.8,75.3,66.3,76.2z"/>
	</g>
</g>
<g>
	<path d="M75.7,6.9C76.1,7.3,76,8.3,75.9,9c-0.9,3.2-3.4,6.2-5.3,8.8c-2,2.7-4.4,5.2-7.4,6.8c-4.3,2.3-9.4,3.1-14.2,2
		c-0.6-0.1-1.3-0.3-1.9-0.5c-4-1.3-7.6-3.7-11.2-5.8c-2.6-1.6-5.3-3.2-8.3-4.1c-3.2-0.9-6.8-0.6-10.1-0.8c-1.7-0.1-3.3-0.3-4.6-1.5
		c-0.8-0.7-1.3-1.7-1-2.7c0.3-1,1.3-1.6,2.2-2.1c2.4-1.1,4.9-1.2,7.5-1.3c2.9-0.1,5.8,0,8.7,0.4c3.3,0.5,6.6,1.2,9.9,1.2
		c0.6,0,2.8,0.1,3-0.6c-0.2,0.9-7.6-0.8-8.4-1c-1.8-0.4-3.6-0.8-5.5-1c-3.8-0.5-7.6-0.7-11.4-0.1c-1.9,0.3-3.9,0.8-5.4,1.9
		c-1.1,0.8-2,2-2.1,3.4c-0.1,1.4,1.2,2.4,2.3,3c-0.2-0.1-0.7,0.5-0.8,0.6c-1.3,1.4-2.4,2.9-3.2,4.6c-0.9,1.8-1.6,3.6-2.7,5.3
		C5.1,27,3,29.1,1.2,28.4c-0.4-0.2-0.8-0.6-0.9-1C0.1,27,0.1,26.5,0.1,26c0-2.6,1.3-4.8,2.4-7c1.4-2.7,3-5.3,4.9-7.7
		c1.9-2.4,4.3-4.7,6.9-6.5C15.6,4,17,3.2,18.5,2.5c4.3-2.1,9.2-2.6,14-2.5c4.7,0.1,9.6,0.6,14.1,2c4.9,1.5,9.5,3.8,14.5,5.1
		c2.9,0.8,6,1.2,9.1,0.8c1.5-0.2,3-0.5,4.5-1.1C75.1,6.5,75.5,6.6,75.7,6.9z"/>
	<g>
		<path d="M15.5,18.9c0.9-1.2,2-2.4,3.4-2.9c0,0-0.2,0-0.2,0c-1.2,0.3-2.1,0.3-2.9,0.2c-0.2,0-1.1,1.4-1.2,1.6
			c-0.4,0.6-0.8,1.1-1.1,1.7c-1,1.5-1.9,3.1-2.9,4.6c0,0.1-0.3,0.6-0.4,0.6c0.3,0,0.7-0.4,0.9-0.6c0.5-0.4,0.9-0.9,1.3-1.4
			c0.9-1,1.7-2,2.5-3.1C15.1,19.4,15.3,19.2,15.5,18.9z"/>
	</g>
	<g>
		<path d="M9.7,23.3c0.3-0.5,0.7-1.1,1-1.6c0.9-1.5,1.8-2.9,2.8-4.3c0.1-0.2,0.3-0.4,0.4-0.6c0.2-0.2,0.4-0.5,0.6-0.7l0.2-0.2
			c-0.6-0.1-1.1-0.2-1.5-0.4c0,0-0.5,0.6-0.6,0.6c-0.3,0.3-0.5,0.6-0.7,0.9c-1.1,1.4-2,3-2.7,4.6c-0.4,0.8-0.7,1.6-1.1,2.5
			c-0.3,0.8-0.6,1.6-1.1,2.3c0,0.1-0.1,0.1-0.2,0.2c0,0,0,0-0.1,0.1c0.1-0.1,0.2-0.2,0.4-0.3c0.3-0.2,0.5-0.5,0.8-0.8
			C8.6,24.9,9.2,24.1,9.7,23.3z"/>
	</g>
</g>
</svg>
