<?xml version="1.0" encoding="utf-8"?>
<!-- Generator: Adobe Illustrator 27.9.1, SVG Export Plug-In . SVG Version: 6.00 Build 0)  -->
<svg version="1.1" id="Layer_1" xmlns="http://www.w3.org/2000/svg" xmlns:xlink="http://www.w3.org/1999/xlink" x="0px" y="0px"
	 viewBox="0 0 128 160.6" style="enable-background:new 0 0 128 160.6;" xml:space="preserve">
<g>
	<path d="M62.7,81.6c0,10.1-6.9,14.3-15.6,14.3c-10.7,0-15.6-7.2-15.6-14c0-4.3,0.8-6.8,3-10.7c1.2-2,5.6-8,9.7-13.5
		c0.5-0.7,1.2-1.1,2.1-1.1h10c1.4,0,1.9,0.9,1.1,2.1l-7.5,10C57.3,68,62.7,74.2,62.7,81.6z M51.1,81.9c0-2.3-1.7-4.3-4-4.3
		c-2.1,0-4,1.8-4,4.3c0,3,2,4.4,4,4.4C49.2,86.3,51.1,84.9,51.1,81.9z"/>
</g>
<g>
	<path d="M79.1,68.8l-7.5-10c-0.8-1.2-0.4-2.1,1.1-2.1h10c0.9,0,1.6,0.3,2.1,1.1c4.1,5.5,8.5,11.5,9.7,13.5c2.1,3.8,3,6.3,3,10.7
		c0,6.9-5,14-15.6,14c-8.7,0-15.6-4.2-15.6-14.3C66.1,74.2,71.5,68,79.1,68.8z M81.7,86.3c2,0,4-1.4,4-4.4c0-2.5-1.9-4.3-4-4.3
		c-2.3,0-4,2-4,4.3C77.7,84.9,79.6,86.3,81.7,86.3z"/>
</g>
<g>
	<path d="M26.8,119.4c-0.4-0.5-0.3-1.5-0.1-2.1c0.9-3.2,3.4-6.2,5.3-8.8c2-2.7,4.4-5.2,7.4-6.8c4.3-2.3,9.4-3.1,14.2-2
		c0.6,0.1,1.3,0.3,1.9,0.5c4,1.3,7.6,3.7,11.2,5.8c2.6,1.6,5.3,3.2,8.3,4.1c3.2,0.9,6.8,0.6,10.1,0.8c1.7,0.1,3.3,0.3,4.6,1.5
		c0.8,0.7,1.3,1.7,1,2.7c-0.3,1-1.3,1.6-2.2,2.1c-2.4,1.1-4.9,1.2-7.5,1.3c-2.9,0.1-5.8,0-8.7-0.4c-3.3-0.5-6.6-1.2-9.9-1.2
		c-0.6,0-2.8-0.1-3,0.6c0.2-0.9,7.6,0.8,8.4,1c1.8,0.4,3.6,0.8,5.5,1c3.8,0.5,7.6,0.7,11.4,0.1c1.9-0.3,3.9-0.8,5.4-1.9
		c1.1-0.8,2-2,2.1-3.4c0.1-1.4-1.2-2.4-2.3-3c0.2,0.1,0.7-0.5,0.8-0.6c1.3-1.4,2.4-2.9,3.2-4.6c0.9-1.8,1.6-3.6,2.7-5.3
		c0.8-1.3,2.9-3.4,4.6-2.7c0.4,0.2,0.8,0.6,0.9,1c0.2,0.4,0.2,0.9,0.2,1.4c0,2.6-1.3,4.8-2.4,7c-1.4,2.7-3,5.3-4.9,7.7
		c-1.9,2.4-4.3,4.7-6.9,6.5c-1.3,0.9-2.7,1.7-4.1,2.4c-4.3,2.1-9.2,2.6-14,2.5c-4.7-0.1-9.6-0.6-14.1-2c-4.9-1.5-9.5-3.8-14.5-5.1
		c-2.9-0.8-6-1.2-9.1-0.8c-1.5,0.2-3,0.5-4.5,1.1C27.3,119.7,27,119.7,26.8,119.4z"/>
	<g>
		<path d="M87,107.3c-0.9,1.2-2,2.4-3.4,2.9c0,0,0.2,0,0.2,0c1.2-0.3,2.1-0.3,2.9-0.2c0.2,0,1.1-1.4,1.2-1.6
			c0.4-0.6,0.8-1.1,1.1-1.7c1-1.5,1.9-3.1,2.9-4.6c0-0.1,0.3-0.6,0.4-0.6c-0.3,0-0.7,0.4-0.9,0.6c-0.5,0.4-0.9,0.9-1.3,1.4
			c-0.9,1-1.7,2-2.5,3.1C87.4,106.8,87.2,107.1,87,107.3z"/>
	</g>
	<g>
		<path d="M92.8,103c-0.3,0.5-0.7,1.1-1,1.6c-0.9,1.5-1.8,2.9-2.8,4.3c-0.1,0.2-0.3,0.4-0.4,0.6c-0.2,0.2-0.4,0.5-0.6,0.7l-0.2,0.2
			c0.6,0.1,1.1,0.2,1.5,0.4c0,0,0.5-0.6,0.6-0.6c0.3-0.3,0.5-0.6,0.7-0.9c1.1-1.4,2-3,2.7-4.6c0.4-0.8,0.7-1.6,1.1-2.5
			c0.3-0.8,0.6-1.6,1.1-2.3c0-0.1,0.1-0.1,0.2-0.2c0,0,0,0,0.1-0.1c-0.1,0.1-0.2,0.2-0.4,0.3c-0.3,0.2-0.5,0.5-0.8,0.8
			C93.9,101.3,93.3,102.2,92.8,103z"/>
	</g>
</g>
<g>
	<path d="M102.2,33.7c0.4,0.5,0.3,1.5,0.1,2.1c-0.9,3.2-3.4,6.2-5.3,8.8c-2,2.7-4.4,5.2-7.4,6.8c-4.3,2.3-9.4,3.1-14.2,2
		c-0.6-0.1-1.3-0.3-1.9-0.5c-4-1.3-7.6-3.7-11.2-5.8C59.7,45.4,57,43.8,54,43c-3.2-0.9-6.8-0.6-10.1-0.8c-1.7-0.1-3.3-0.3-4.6-1.5
		C38.5,40,38,39,38.3,38c0.3-1,1.3-1.6,2.2-2.1c2.4-1.1,4.9-1.2,7.5-1.3c2.9-0.1,5.8,0,8.7,0.4c3.3,0.5,6.6,1.2,9.9,1.2
		c0.6,0,2.8,0.1,3-0.6c-0.2,0.9-7.6-0.8-8.4-1c-1.8-0.4-3.6-0.8-5.5-1c-3.8-0.5-7.6-0.7-11.4-0.1c-1.9,0.3-3.9,0.8-5.4,1.9
		c-1.1,0.8-2,2-2.1,3.4c-0.1,1.4,1.2,2.4,2.3,3c-0.2-0.1-0.7,0.5-0.8,0.6c-1.3,1.4-2.4,2.9-3.2,4.6c-0.9,1.8-1.6,3.6-2.7,5.3
		c-0.8,1.3-2.9,3.4-4.6,2.7c-0.4-0.2-0.8-0.6-0.9-1c-0.2-0.4-0.2-0.9-0.2-1.4c0-2.6,1.3-4.8,2.4-7c1.4-2.7,3-5.3,4.9-7.7
		c1.9-2.4,4.3-4.7,6.9-6.5c1.3-0.9,2.7-1.7,4.1-2.4c4.3-2.1,9.2-2.6,14-2.5c4.7,0.1,9.6,0.6,14.1,2c4.9,1.5,9.5,3.8,14.5,5.1
		c2.9,0.8,6,1.2,9.1,0.8c1.5-0.2,3-0.5,4.5-1.1C101.6,33.3,102,33.4,102.2,33.7z"/>
	<g>
		<path d="M41.9,45.7c0.9-1.2,2-2.4,3.4-2.9c0,0-0.2,0-0.2,0c-1.2,0.3-2.1,0.3-2.9,0.2c-0.2,0-1.1,1.4-1.2,1.6
			c-0.4,0.6-0.8,1.1-1.1,1.7C39,47.9,38,49.4,37,51c0,0.1-0.3,0.6-0.4,0.6c0.3,0,0.7-0.4,0.9-0.6c0.5-0.4,0.9-0.9,1.3-1.4
			c0.9-1,1.7-2,2.5-3.1C41.5,46.2,41.7,46,41.9,45.7z"/>
	</g>
	<g>
		<path d="M36.2,50.1c0.3-0.5,0.7-1.1,1-1.6C38,47,39,45.6,40,44.2c0.1-0.2,0.3-0.4,0.4-0.6c0.2-0.2,0.4-0.5,0.6-0.7l0.2-0.2
			c-0.6-0.1-1.1-0.2-1.5-0.4c0,0-0.5,0.6-0.6,0.6c-0.3,0.3-0.5,0.6-0.7,0.9c-1.1,1.4-2,3-2.7,4.6c-0.4,0.8-0.7,1.6-1.1,2.5
			c-0.3,0.8-0.6,1.6-1.1,2.3c0,0.1-0.1,0.1-0.2,0.2c0,0,0,0-0.1,0.1c0.1-0.1,0.2-0.2,0.4-0.3c0.3-0.2,0.5-0.5,0.8-0.8
			C35.1,51.7,35.6,50.9,36.2,50.1z"/>
	</g>
</g>
<g>
	<path d="M16.5,138.6c0.4,1.2,1.2,2.6,2.3,3.4c0.7,0.6,1.4,0.6,1.7,0.2c0.5-0.6-0.2-1.2-1-2.1c-1.2-1.4-3.9-3.9-1.8-6.7
		c2.1-2.8,5.2-1.6,7.1-0.1c1.7,1.3,2.7,2.8,3.2,4.6c0.1,0.4-0.1,0.6-0.4,0.8l-2.1,0.6c-0.4,0.1-0.6,0-0.8-0.4
		c-0.4-1-1.1-2.1-2.1-2.8c-0.5-0.4-1.2-0.7-1.5-0.2c-0.4,0.5,0.2,1.2,0.8,1.8c2,2.1,4.1,4.2,2,7c-1.8,2.4-4.5,2.2-7.2,0.2
		c-2.1-1.6-3.1-3.3-3.6-5.3c-0.1-0.4,0.1-0.6,0.4-0.7l2.1-0.6C16.1,138.1,16.4,138.2,16.5,138.6z"/>
	<path d="M34.4,140.3l-6,10.9c-0.2,0.3-0.5,0.4-0.8,0.2l-2.6-1.4c-0.3-0.2-0.4-0.5-0.2-0.8l6-10.9c0.2-0.3,0.5-0.4,0.8-0.2l2.6,1.4
		C34.5,139.6,34.5,139.9,34.4,140.3z"/>
	<path d="M31.2,152.8l6.4-4.1l-2.4-7.4c-0.2-0.5,0.1-0.8,0.6-0.6l3.4,1.2c0.3,0.1,0.5,0.3,0.6,0.6l1.2,4.2l3.5-2.5
		c0.3-0.2,0.5-0.2,0.8-0.1l3.4,1.2c0.5,0.2,0.5,0.5,0.1,0.8l-6.6,4.2l2.4,7.3c0.2,0.5-0.1,0.8-0.6,0.6l-3.4-1.2
		c-0.3-0.1-0.5-0.3-0.6-0.6l-1.1-4l-3.4,2.4c-0.3,0.2-0.5,0.2-0.8,0.1l-3.4-1.2C30.8,153.4,30.8,153.1,31.2,152.8z"/>
	<path d="M60.1,147.6l-0.3,2.1c-0.1,0.4-0.3,0.6-0.7,0.5l-2.9-0.4l-1.5,9.6c-0.1,0.4-0.3,0.6-0.7,0.5l-2.9-0.4
		c-0.4-0.1-0.6-0.3-0.5-0.7l1.5-9.6l-2.9-0.4c-0.4-0.1-0.6-0.3-0.5-0.7l0.3-2.1c0.1-0.4,0.3-0.6,0.7-0.5l9.9,1.5
		C60,147,60.2,147.2,60.1,147.6z"/>
	<path d="M60.7,147.9c-0.3-0.4-0.1-0.7,0.4-0.8l3.4-0.2c0.3,0,0.6,0.1,0.7,0.4l2.6,4.2l2.1-4.4c0.1-0.3,0.4-0.4,0.7-0.5l3.4-0.2
		c0.5,0,0.7,0.3,0.4,0.7l-4.5,7.9l0.2,4.6c0,0.4-0.2,0.6-0.6,0.6l-3,0.1c-0.4,0-0.6-0.2-0.6-0.6l-0.2-4.6L60.7,147.9z"/>
	<path d="M85.2,153.2c1.2,0.3,2.9,0.4,4.1,0c0.9-0.3,1.3-0.8,1.1-1.3c-0.3-0.7-1.1-0.5-2.3-0.4c-1.8,0.2-5.4,1-6.6-2.3
		c-1.1-3.3,1.6-5.2,3.9-6c2-0.7,3.9-0.7,5.6-0.1c0.4,0.1,0.5,0.4,0.4,0.8l-0.7,2.1c-0.1,0.4-0.4,0.5-0.8,0.4
		c-1.1-0.2-2.3-0.3-3.5,0.1c-0.5,0.2-1.2,0.6-1,1.1c0.2,0.6,1.1,0.5,1.9,0.4c2.9-0.5,5.8-1.1,6.9,2.2c1,2.9-0.7,5-3.8,6.1
		c-2.5,0.8-4.4,0.7-6.4,0c-0.4-0.1-0.5-0.4-0.4-0.8l0.6-2.1C84.6,153.2,84.8,153,85.2,153.2z"/>
	<path d="M96.5,139.3l5.7,11c0.2,0.3,0.1,0.7-0.3,0.8l-2.6,1.3c-0.3,0.2-0.7,0.1-0.8-0.3l-5.7-11c-0.2-0.3-0.1-0.7,0.3-0.8l2.6-1.3
		C96.1,138.8,96.4,138.9,96.5,139.3z"/>
	<path d="M105.2,148.9l0.2-7.6l-7.5-2.1c-0.5-0.1-0.6-0.5-0.1-0.8l2.9-2.1c0.3-0.2,0.5-0.2,0.8-0.1l4.1,1.4l-0.1-4.3
		c0-0.3,0.1-0.6,0.4-0.7l2.9-2.1c0.4-0.3,0.8-0.1,0.7,0.4l-0.2,7.8l7.4,2c0.5,0.1,0.6,0.5,0.2,0.8l-2.9,2.2
		c-0.3,0.2-0.5,0.2-0.8,0.1l-3.9-1.3l0.1,4.2c0,0.3-0.1,0.6-0.4,0.8l-2.9,2.1C105.5,149.5,105.1,149.4,105.2,148.9z"/>
</g>
<g>
	<path d="M8.6,28.9L5,33.8L6.5,35l3.2-4.3c0.2-0.3,0.5-0.4,0.9-0.1l1.7,1.3c0.3,0.2,0.4,0.5,0.1,0.9L9.2,37l3.6,2.6
		c0.3,0.2,0.4,0.5,0.1,0.9l-1.8,2.4c-0.2,0.3-0.5,0.4-0.9,0.1l-10-7.4C0,35.3-0.1,35,0.1,34.7L5.9,27c0.2-0.3,0.5-0.4,0.9-0.1
		l1.7,1.3C8.8,28.3,8.8,28.6,8.6,28.9z"/>
	<path d="M12.8,29.1c-2.6-2.9-2.5-7.2,0.8-10.1c3.3-2.9,7.6-2.4,10.1,0.5c2.6,2.9,2.5,7.2-0.8,10.1C19.7,32.4,15.4,32,12.8,29.1z
		 M16,26.3c1.3,1.5,3.2,1.9,4.7,0.6c1.5-1.3,1.3-3.2,0-4.7c-1.3-1.4-3.2-2-4.7-0.6C14.4,22.9,14.7,24.8,16,26.3z"/>
	<path d="M26.7,19l-3.5-6.5c-0.2-0.3-0.1-0.6,0.3-0.8l2.6-1.4c0.3-0.2,0.6-0.1,0.8,0.3l3.5,6.6c0.8,1.5,2.2,1.4,2.9,1
		c0.7-0.4,1.6-1.4,0.8-3l-3.5-6.6c-0.2-0.3-0.1-0.6,0.3-0.8l2.6-1.4c0.3-0.2,0.6-0.1,0.8,0.3l3.5,6.5c1.7,3.2,0.6,6.3-2.7,8.1
		C31.6,23,28.3,22.1,26.7,19z"/>
	<path d="M53.6,14.3l-0.5,0.1c-0.3,0.1-0.5,0-0.8-0.1l-7.8-4l1.4,5.3c0.1,0.4-0.1,0.7-0.4,0.8l-2.9,0.8c-0.4,0.1-0.7-0.1-0.8-0.4
		l-3.2-12c-0.1-0.4,0.1-0.7,0.4-0.8l0.5-0.1C40,3.8,40.2,3.8,40.5,4L48.3,8l-1.4-5.4c-0.1-0.4,0.1-0.7,0.4-0.8l2.9-0.8
		c0.4-0.1,0.7,0.1,0.8,0.4l3.2,12C54.2,14,54,14.2,53.6,14.3z"/>
	<path d="M56.2,13.2L55.8,0.8c0-0.4,0.2-0.6,0.6-0.6L61.6,0c4.2-0.1,7.2,2.5,7.3,6.6c0.1,4.1-2.7,6.9-6.9,7l-5.2,0.2
		C56.4,13.8,56.2,13.6,56.2,13.2z M61.7,10.3c1.3,0,3-1,3-3.6c-0.1-2.6-1.9-3.5-3.2-3.4l-1.4,0l0.2,7L61.7,10.3z"/>
	<path d="M78.7,1.7l4.3,13.5c0.1,0.5-0.1,0.7-0.5,0.6l-3.2-0.6c-0.3-0.1-0.5-0.2-0.6-0.6l-0.5-1.6l-4.6-0.8l-1,1.3
		c-0.2,0.3-0.5,0.4-0.8,0.3l-3.2-0.6c-0.5-0.1-0.6-0.4-0.3-0.8l8.7-11.2c0.2-0.3,0.5-0.4,0.8-0.3l0.2,0C78.4,1.2,78.6,1.4,78.7,1.7z
		 M77.5,10l-0.6-2.9l-1.6,2.5L77.5,10z"/>
	<path d="M96,7.2l-0.7,2c-0.1,0.4-0.4,0.5-0.8,0.4l-2.8-1l-3.3,9.1C88.3,18,88,18.1,87.6,18l-2.8-1c-0.4-0.1-0.5-0.4-0.4-0.8
		l3.3-9.1l-2.8-1c-0.4-0.1-0.5-0.4-0.4-0.8l0.7-2c0.1-0.4,0.4-0.5,0.8-0.4l9.4,3.4C96,6.5,96.2,6.8,96,7.2z"/>
	<path d="M102.1,10.5l-5.9,11c-0.2,0.3-0.5,0.4-0.8,0.3l-2.6-1.4c-0.3-0.2-0.4-0.5-0.3-0.8l5.9-11c0.2-0.3,0.5-0.4,0.8-0.3l2.6,1.4
		C102.2,9.8,102.3,10.1,102.1,10.5z"/>
	<path d="M101.6,17c2.4-3,6.7-3.8,10.1-1.1c3.4,2.7,3.8,7,1.4,10.1c-2.4,3.1-6.7,3.8-10.1,1.1C99.6,24.4,99.2,20.1,101.6,17z
		 M104.9,19.6c-1.2,1.5-1.3,3.5,0.3,4.7c1.6,1.2,3.4,0.7,4.6-0.9c1.2-1.5,1.3-3.5-0.3-4.7C108,17.4,106.1,18,104.9,19.6z"/>
	<path d="M117.1,41.6l-0.3-0.4c-0.2-0.2-0.3-0.5-0.2-0.8l0.5-8.7l-4.3,3.5c-0.3,0.2-0.6,0.2-0.9-0.1l-1.8-2.3
		c-0.2-0.3-0.2-0.6,0.1-0.9l9.7-7.8c0.3-0.2,0.6-0.2,0.9,0.1l0.3,0.4c0.2,0.2,0.3,0.4,0.2,0.8l-0.6,8.8l4.4-3.5
		c0.3-0.2,0.6-0.2,0.9,0.1l1.8,2.3c0.2,0.3,0.2,0.6-0.1,0.9l-9.7,7.8C117.7,41.9,117.4,41.9,117.1,41.6z"/>
</g>
</svg>
