<?xml version="1.0" encoding="utf-8"?>
<!-- Generator: Adobe Illustrator 27.9.1, SVG Export Plug-In . SVG Version: 6.00 Build 0)  -->
<svg version="1.1" id="Layer_1" xmlns="http://www.w3.org/2000/svg" xmlns:xlink="http://www.w3.org/1999/xlink" x="0px" y="0px"
	 viewBox="0 0 65.9 39.2" style="enable-background:new 0 0 65.9 39.2;" xml:space="preserve">
<g>
	<path d="M31.2,24.9c0,10.1-6.9,14.3-15.6,14.3C5,39.2,0,32.1,0,25.2c0-4.3,0.8-6.8,3-10.7c1.2-2,5.6-8,9.7-13.5
		C13.2,0.3,13.9,0,14.8,0h10c1.4,0,1.9,0.9,1.1,2.1l-7.5,10C25.9,11.3,31.2,17.5,31.2,24.9z M19.7,25.2c0-2.3-1.7-4.3-4-4.3
		c-2.1,0-4,1.8-4,4.3c0,3,2,4.4,4,4.4C17.7,29.6,19.7,28.2,19.7,25.2z"/>
</g>
<g>
	<path d="M47.7,12.1l-7.5-10C39.3,0.9,39.7,0,41.2,0h10c0.9,0,1.6,0.3,2.1,1.1c4.1,5.5,8.5,11.5,9.7,13.5c2.1,3.8,3,6.3,3,10.7
		c0,6.9-5,14-15.6,14c-8.7,0-15.6-4.2-15.6-14.3C34.7,17.5,40,11.3,47.7,12.1z M50.2,29.6c2,0,4-1.4,4-4.4c0-2.5-1.9-4.3-4-4.3
		c-2.3,0-4,2-4,4.3C46.2,28.2,48.2,29.6,50.2,29.6z"/>
</g>
</svg>
